<svg width="300" height="270" fill="none" xmlns="http://www.w3.org/2000/svg"><path d="M.5.5h299v269H200C89.82 269.5.5 180.181.5 70V.5z" fill="#0093A1" stroke="#0093A1"/><path d="M91.791 127l3.864-23.273h16.227l-.773 4.568h-10.602l-.773 4.773h9.773l-.773 4.58h-9.772l-.773 4.784h10.602l-.773 4.568H91.791zm43.421-23.273L131.348 127h-4.773l-7.011-13.432h-.159L117.166 127h-5.625l3.864-23.273h4.841l6.954 13.409h.193l2.205-13.409h5.614zm12.991 0h5.546l-2.66 16.114c-.257 1.507-.829 2.822-1.715 3.943-.887 1.121-2.008 1.993-3.364 2.614-1.356.613-2.86.92-4.511.92-1.447 0-2.724-.254-3.83-.761-1.106-.508-1.924-1.296-2.455-2.364-.53-1.068-.655-2.435-.375-4.102h5.591c-.075.606-.049 1.117.08 1.534.136.417.367.731.693.943.333.212.761.318 1.284.318.546 0 1.023-.117 1.432-.352.417-.235.761-.583 1.034-1.045.28-.462.481-1.027.602-1.694l2.648-16.068zm29.054 12c-.424 2.508-1.257 4.625-2.5 6.353-1.235 1.719-2.739 3.022-4.511 3.909-1.765.886-3.663 1.329-5.693 1.329-2.144 0-4-.477-5.569-1.432-1.568-.954-2.708-2.344-3.42-4.17-.705-1.826-.841-4.042-.409-6.648.409-2.507 1.231-4.629 2.466-6.363 1.242-1.735 2.754-3.05 4.534-3.944a12.599 12.599 0 015.75-1.352c2.129 0 3.973.481 5.534 1.443 1.568.962 2.704 2.36 3.409 4.193.705 1.834.841 4.061.409 6.682zm-5.625-.659c.235-1.462.235-2.693 0-3.693-.227-1-.674-1.754-1.341-2.261-.666-.516-1.534-.773-2.602-.773-1.182 0-2.25.292-3.205.875-.947.576-1.738 1.417-2.375 2.523-.636 1.098-1.079 2.428-1.329 3.988-.258 1.478-.265 2.709-.023 3.693.25.985.716 1.728 1.398 2.228.682.492 1.549.738 2.602.738 1.174 0 2.231-.284 3.171-.852.939-.568 1.723-1.398 2.352-2.489.636-1.09 1.087-2.416 1.352-3.977zm8.207-11.341h6.285l3.295 9.739h.239l6.511-9.739h6.284l-11.079 15.5-1.296 7.773h-5.591l1.307-7.773-5.955-15.5zm-109.78 39h6.283l3.296 9.739h.238l6.512-9.739h6.284l-11.08 15.5L80.297 166h-5.591l1.307-7.773-5.955-15.5zm43.417 12c-.424 2.508-1.258 4.625-2.5 6.353-1.235 1.719-2.739 3.022-4.512 3.909-1.765.886-3.662 1.329-5.693 1.329-2.144 0-4-.477-5.568-1.432-1.568-.954-2.708-2.344-3.42-4.17-.705-1.826-.841-4.042-.41-6.648.41-2.507 1.232-4.629 2.466-6.363 1.243-1.735 2.754-3.05 4.535-3.944a12.599 12.599 0 015.75-1.352c2.128 0 3.973.481 5.534 1.443 1.568.962 2.704 2.36 3.409 4.193.704 1.834.841 4.061.409 6.682zm-5.625-.659c.235-1.462.235-2.693 0-3.693-.227-1-.674-1.754-1.341-2.261-.667-.516-1.534-.773-2.602-.773-1.182 0-2.25.292-3.205.875-.947.576-1.739 1.417-2.375 2.523-.636 1.098-1.08 2.428-1.33 3.988-.257 1.478-.265 2.709-.022 3.693.25.985.716 1.728 1.398 2.228.681.492 1.549.738 2.602.738 1.174 0 2.231-.284 3.17-.852.94-.568 1.724-1.398 2.353-2.489.636-1.09 1.087-2.416 1.352-3.977zm24.977-11.341h5.614l-2.489 15.012c-.288 1.734-.951 3.246-1.989 4.534-1.03 1.28-2.344 2.272-3.943 2.977-1.598.697-3.378 1.045-5.341 1.045-1.969 0-3.632-.348-4.988-1.045-1.356-.705-2.337-1.697-2.943-2.977-.606-1.288-.769-2.8-.489-4.534l2.489-15.012h5.625l-2.421 14.523c-.129.803-.068 1.519.182 2.148a3.13 3.13 0 001.25 1.477c.576.356 1.28.534 2.114.534.84 0 1.609-.178 2.306-.534a4.951 4.951 0 001.728-1.477 4.959 4.959 0 00.875-2.148l2.42-14.523zM138.104 166l3.863-23.273h9.614c1.742 0 3.197.315 4.364.943 1.166.622 1.996 1.516 2.488 2.682.493 1.159.606 2.534.341 4.125-.257 1.606-.833 2.974-1.727 4.103-.886 1.121-2.03 1.977-3.432 2.568-1.394.591-2.977.886-4.75.886h-6.079l.75-4.432h5.034c.841 0 1.568-.11 2.181-.329.614-.228 1.103-.568 1.466-1.023.372-.462.618-1.053.739-1.773.114-.719.061-1.314-.159-1.784-.212-.477-.587-.833-1.125-1.068-.53-.242-1.212-.364-2.046-.364h-2.772L143.729 166h-5.625zm14.863-10.636L157.001 166h-6.136l-3.909-10.636h6.011zM166.416 166l3.864-23.273h5.625l-3.091 18.705h9.682l-.773 4.568h-15.307zm27.708-23.273L190.26 166h-5.625l3.864-23.273h5.625zM193.791 166l3.864-23.273h15.886l-.773 4.568h-10.261l-.773 4.773h9.25l-.772 4.58h-9.25L199.416 166h-5.625zm18.719 0l3.864-23.273h16.227l-.773 4.568h-10.602l-.773 4.773h9.773l-.773 4.58h-9.773l-.772 4.784h10.602l-.773 4.568H212.51z" fill="#fff"/></svg>